<svg width="83" height="83" viewBox="0 0 83 83" fill="none" xmlns="http://www.w3.org/2000/svg">
<circle cx="41.5" cy="41.5" r="41.5" fill="#1B4744"/>
<circle cx="41" cy="41" r="24" fill="#EAEFEF"/>
<path d="M10.0292 37.7514C9.92035 37.736 9.82113 37.7393 9.73157 37.7612C9.64236 37.7807 9.55674 37.8265 9.47471 37.8989C9.39269 37.9712 9.30819 38.0777 9.22123 38.2184C9.1322 38.3563 9.03602 38.5352 8.9327 38.755C8.81898 38.9956 8.69959 39.2156 8.57452 39.4151C8.44738 39.6118 8.30957 39.7798 8.16108 39.9192C8.01016 40.0583 7.84617 40.1598 7.66909 40.2236C7.4896 40.287 7.29098 40.3034 7.07325 40.2726C6.85793 40.2422 6.66843 40.1698 6.50474 40.0554C6.3414 39.9385 6.20766 39.7876 6.10352 39.6026C5.99732 39.4149 5.92571 39.2012 5.88871 38.9616C5.8493 38.7216 5.84966 38.4625 5.8898 38.1844C5.94635 37.7927 6.06762 37.4656 6.25362 37.2032C6.43996 36.9383 6.6663 36.747 6.93264 36.6292C7.19933 36.5089 7.48025 36.4696 7.7754 36.5113L7.64502 37.4146C7.47083 37.3899 7.3118 37.4057 7.16792 37.4619C7.02197 37.5153 6.89946 37.6115 6.80041 37.7505C6.7017 37.8871 6.63594 38.069 6.60312 38.2963C6.57206 38.5115 6.57889 38.6951 6.62361 38.847C6.66834 38.9989 6.74128 39.1178 6.84245 39.2036C6.94361 39.2895 7.06435 39.3423 7.20467 39.3622C7.30386 39.3762 7.3979 39.366 7.48679 39.3317C7.57325 39.297 7.65837 39.2375 7.74215 39.1531C7.8235 39.0684 7.90471 38.9589 7.98579 38.8248C8.06687 38.6907 8.14919 38.5308 8.23276 38.3452C8.36209 38.0649 8.49568 37.8234 8.63355 37.6208C8.76899 37.4179 8.91371 37.2533 9.06772 37.127C9.22172 37.0007 9.38863 36.9132 9.56845 36.8646C9.74586 36.8157 9.941 36.8062 10.1539 36.8363C10.3765 36.8677 10.5708 36.9409 10.7369 37.0556C10.9006 37.17 11.0333 37.3196 11.135 37.5042C11.2347 37.6861 11.3016 37.8979 11.3359 38.1396C11.368 38.3786 11.3637 38.6395 11.3228 38.9224C11.2862 39.1764 11.2162 39.4219 11.1128 39.6589C11.0098 39.8936 10.8749 40.1016 10.708 40.2828C10.5388 40.4637 10.3415 40.5987 10.1164 40.6878C9.88879 40.7765 9.63468 40.8011 9.35404 40.7614L9.48546 39.851C9.65723 39.8752 9.80779 39.8669 9.93713 39.826C10.0668 39.7826 10.1781 39.7132 10.2708 39.6177C10.3612 39.5219 10.4346 39.4064 10.4912 39.2713C10.548 39.1338 10.5882 38.984 10.6116 38.822C10.6423 38.6091 10.6377 38.4271 10.5978 38.2759C10.5583 38.1223 10.4893 38.0015 10.3909 37.9136C10.2925 37.8256 10.172 37.7716 10.0292 37.7514Z" fill="#FCFCFC"/>
<path d="M12.1649 29.5989L12.5451 28.7653C12.8519 28.9344 13.0959 29.1502 13.2768 29.413C13.4555 29.6747 13.554 29.9741 13.5721 30.3113C13.5902 30.6484 13.51 31.0127 13.3316 31.4039C13.1947 31.704 13.018 31.9502 12.8015 32.1425C12.5826 32.3338 12.3349 32.4708 12.0583 32.5533C11.7794 32.6349 11.4776 32.658 11.1526 32.6226C10.8287 32.5851 10.4916 32.4881 10.1413 32.3318L9.7364 32.151C9.38611 31.9947 9.09007 31.8077 8.84827 31.5901C8.6075 31.3702 8.42624 31.1288 8.30451 30.8658C8.18054 30.6018 8.12026 30.3247 8.12366 30.0346C8.12808 29.7422 8.19973 29.4438 8.33861 29.1392C8.51499 28.7524 8.73541 28.4575 8.99985 28.2544C9.26429 28.0514 9.55602 27.9328 9.87504 27.8986C10.1951 27.8622 10.5256 27.9 10.8665 28.0121L10.4864 28.8457C10.2665 28.7743 10.0646 28.7431 9.88066 28.7519C9.69772 28.7586 9.53426 28.8167 9.39028 28.9264C9.24406 29.035 9.11774 29.206 9.01129 29.4395C8.92411 29.6307 8.88378 29.8133 8.8903 29.9875C8.89682 30.1616 8.94745 30.3274 9.04219 30.4847C9.13693 30.642 9.27467 30.7905 9.4554 30.93C9.63491 31.0663 9.85408 31.1922 10.1129 31.3077L10.5245 31.4915C10.77 31.601 11.0027 31.6795 11.2228 31.7269C11.4416 31.771 11.6427 31.7805 11.826 31.7553C12.0104 31.7279 12.1736 31.6616 12.3155 31.5564C12.4575 31.4512 12.573 31.3008 12.6623 31.1052C12.7707 30.8673 12.8205 30.6581 12.8115 30.4775C12.8036 30.2947 12.7443 30.1331 12.6338 29.9928C12.522 29.8493 12.3657 29.718 12.1649 29.5989Z" fill="#FCFCFC"/>
<path d="M12.097 21.0417L13.3701 19.6482C13.6436 19.3487 13.9223 19.1342 14.2062 19.0046C14.4901 18.8749 14.7723 18.834 15.053 18.8818C15.3335 18.9261 15.604 19.0647 15.8644 19.2976C16.0629 19.4751 16.2048 19.6675 16.2901 19.8749C16.3753 20.0822 16.4097 20.2981 16.3932 20.5226C16.3749 20.7455 16.3108 20.9733 16.2008 21.206L16.1141 21.502L14.9696 22.7549L14.421 22.2741L15.2787 21.3352C15.427 21.1728 15.5215 21.0115 15.5621 20.8511C15.6026 20.6908 15.5976 20.5388 15.5468 20.3951C15.4959 20.248 15.4067 20.1174 15.2792 20.0034C15.1408 19.8796 14.9959 19.7992 14.8444 19.7621C14.6928 19.7216 14.5395 19.7319 14.3843 19.7931C14.2273 19.8526 14.0714 19.9672 13.9165 20.1368L13.2639 20.8511L16.6953 23.9194L16.0749 24.5986L12.097 21.0417ZM18.129 22.35L15.4969 21.6778L16.1442 20.9637L18.7559 21.5931L18.7915 21.6248L18.129 22.35Z" fill="#FCFCFC"/>
<path d="M24.2643 13.0081L24.4105 13.2623C24.6115 13.6117 24.7461 13.9509 24.8141 14.2799C24.8821 14.6089 24.887 14.9188 24.8288 15.2095C24.7726 15.4991 24.6563 15.7623 24.4796 15.9991C24.3018 16.2338 24.0691 16.4321 23.7817 16.5939C23.4964 16.7545 23.2064 16.8505 22.9116 16.8819C22.6177 16.91 22.3285 16.8752 22.0439 16.7774C21.7594 16.6796 21.4895 16.519 21.2341 16.2955C20.9808 16.0708 20.7537 15.7837 20.5527 15.4342L20.4065 15.1801C20.2055 14.8306 20.0726 14.4918 20.0079 14.1638C19.942 13.8336 19.9382 13.5231 19.9965 13.2324C20.0556 12.9383 20.1731 12.6745 20.3488 12.441C20.5254 12.2042 20.7564 12.0055 21.0417 11.8448C21.3291 11.683 21.6208 11.5875 21.9168 11.5582C22.2116 11.5268 22.5009 11.5616 22.7845 11.6627C23.0669 11.7617 23.3336 11.9241 23.5848 12.15C23.8368 12.3726 24.0633 12.6586 24.2643 13.0081ZM23.6089 13.7136L23.4591 13.453C23.3105 13.1947 23.154 12.9814 22.9896 12.8132C22.8261 12.6416 22.657 12.5167 22.4823 12.4384C22.3086 12.3568 22.1319 12.3217 21.9524 12.333C21.7717 12.3423 21.593 12.3966 21.4163 12.4961C21.2396 12.5956 21.1021 12.7192 21.0039 12.867C20.9045 13.0127 20.8448 13.1809 20.8249 13.3716C20.8058 13.559 20.828 13.7666 20.8914 13.9944C20.9536 14.2202 21.059 14.4622 21.2076 14.7206L21.3575 14.9811C21.5061 15.2395 21.6632 15.4539 21.8288 15.6242C21.9944 15.7945 22.1658 15.9209 22.3429 16.0035C22.5209 16.0827 22.6992 16.1183 22.8778 16.1103C23.0552 16.1001 23.2322 16.0453 23.4089 15.9458C23.5878 15.8451 23.7269 15.7219 23.8263 15.5763C23.9245 15.4284 23.9825 15.2598 24.0004 15.0703C24.017 14.8787 23.9925 14.6696 23.927 14.4429C23.8636 14.2151 23.7576 13.9719 23.6089 13.7136Z" fill="#FCFCFC"/>
<path d="M33.865 12.0308L34.0505 12.7362L31.4559 13.4038L31.2705 12.6984L33.865 12.0308ZM30.3477 8.17905L31.7043 13.3399L30.8135 13.5691L29.4568 8.40828L30.3477 8.17905Z" fill="#FCFCFC"/>
<path d="M42.5978 10.3967L42.5727 11.1256L39.8951 11.0353L39.9202 10.3064L42.5978 10.3967ZM40.3353 5.71096L40.1515 11.044L39.2321 11.0129L39.4159 5.67995L40.3353 5.71096Z" fill="#FCFCFC"/>
<path d="M54.5403 13.8878L53.5346 13.3514L53.8901 12.7144L54.8893 13.2474C55.1803 13.4026 55.4584 13.4692 55.7236 13.4473C55.9909 13.4265 56.2384 13.3245 56.4662 13.1414C56.6961 12.9594 56.8999 12.7054 57.0776 12.3793L57.2161 12.125C57.3541 11.8719 57.4471 11.6321 57.4953 11.4059C57.5456 11.1807 57.551 10.9718 57.5114 10.7789C57.4739 10.5873 57.393 10.414 57.2687 10.2591C57.1466 10.1054 56.981 9.97274 56.7719 9.86121L55.7177 9.29897L56.0684 8.65532L57.1226 9.21757C57.4352 9.38429 57.6922 9.5892 57.8936 9.83231C58.0962 10.0733 58.2381 10.3414 58.3193 10.6366C58.4026 10.9331 58.4207 11.2445 58.3736 11.5711C58.3264 11.8976 58.2111 12.2293 58.0275 12.5661L57.8925 12.8139C57.709 13.1507 57.4923 13.4284 57.2425 13.6468C56.9927 13.8652 56.7198 14.0215 56.4237 14.1156C56.1288 14.2075 55.8212 14.2358 55.5009 14.2007C55.1839 14.1646 54.8637 14.0603 54.5403 13.8878ZM56.5373 8.9054L53.9841 13.5911L53.1725 13.1582L55.7256 8.4725L56.5373 8.9054Z" fill="#FCFCFC"/>
<path d="M65.9077 17.7101L65.6965 17.9134C65.406 18.193 65.1087 18.4063 64.8044 18.5534C64.5002 18.7005 64.1985 18.7823 63.8995 18.7988C63.6022 18.8171 63.3154 18.771 63.039 18.6607C62.7643 18.5487 62.5113 18.3751 62.2801 18.1399C62.0505 17.9065 61.8829 17.6524 61.7772 17.3777C61.675 17.103 61.6355 16.8172 61.6587 16.5202C61.6818 16.2232 61.7702 15.9246 61.9237 15.6242C62.0789 15.3256 62.3017 15.0365 62.5922 14.7569L62.8034 14.5535C63.0938 14.2739 63.3912 14.0623 63.6954 13.9187C64.0013 13.7734 64.3038 13.6925 64.6028 13.6759C64.9053 13.6594 65.193 13.7063 65.466 13.8166C65.7424 13.927 65.9954 14.0989 66.2249 14.3323C66.4562 14.5675 66.6238 14.8232 66.7277 15.0996C66.8334 15.3743 66.8729 15.6602 66.8463 15.9571C66.8214 16.2524 66.7305 16.5484 66.5735 16.8453C66.4201 17.1422 66.1981 17.4305 65.9077 17.7101ZM65.0515 17.2575L65.268 17.0491C65.4827 16.8424 65.6514 16.6393 65.774 16.44C65.9 16.2406 65.9791 16.0475 66.0112 15.8606C66.0468 15.6738 66.0362 15.4958 65.9794 15.3266C65.9244 15.1557 65.8259 14.9979 65.6837 14.8533C65.5415 14.7087 65.3856 14.6078 65.2162 14.5505C65.0485 14.4915 64.8689 14.4761 64.6775 14.5044C64.4895 14.5328 64.2922 14.6057 64.0856 14.7232C63.8808 14.839 63.671 15.0002 63.4563 15.2069L63.2397 15.4154C63.025 15.6221 62.8554 15.826 62.7311 16.0271C62.6067 16.2282 62.5268 16.4238 62.4912 16.6141C62.459 16.8044 62.4696 16.9842 62.5229 17.1533C62.5779 17.3208 62.6765 17.4768 62.8187 17.6214C62.9626 17.7677 63.1184 17.8704 63.2861 17.9294C63.4555 17.9867 63.6351 18.0003 63.8249 17.9703C64.0164 17.9385 64.2146 17.8631 64.4195 17.7438C64.626 17.6264 64.8367 17.4643 65.0515 17.2575Z" fill="#FCFCFC"/>
<path d="M68.7534 24.0136L72.9582 23.2115L73.1993 23.7137L72.2072 24.1112L67.8513 24.9034L67.6006 24.3814L68.7534 24.0136ZM72.1538 21.5365L68.8118 24.059L67.7307 24.6523L67.4642 24.0972L71.7588 20.7139L72.1538 21.5365ZM70.0165 26.5421L74.0894 25.5671L74.486 26.393L69.1221 27.5497L68.8556 26.9946L70.0165 26.5421ZM73.293 23.9086L69.9937 26.6216L68.9857 27.2655L68.735 26.7435L72.1152 23.9196L73.055 23.413L73.293 23.9086Z" fill="#FCFCFC"/>
<path d="M78.1902 37.3113L72.9271 38.1911L72.7722 37.2844L76.1396 34.2951L72.3693 34.9253L72.2145 34.0185L77.4776 33.1387L77.6325 34.0455L74.2591 37.0432L78.0366 36.4118L78.1902 37.3113Z" fill="#FCFCFC"/>
<path d="M42.7506 31C42.7506 30.5855 42.4145 30.2494 42 30.2494C41.5855 30.2494 41.2494 30.5855 41.2494 31L42.7506 31ZM41.4693 52.5307C41.7624 52.8239 42.2376 52.8239 42.5307 52.5307L47.3074 47.7541C47.6005 47.461 47.6005 46.9857 47.3074 46.6926C47.0143 46.3995 46.539 46.3995 46.2459 46.6926L42 50.9385L37.7541 46.6926C37.461 46.3995 36.9857 46.3995 36.6926 46.6926C36.3995 46.9857 36.3995 47.461 36.6926 47.7541L41.4693 52.5307ZM41.2494 31L41.2494 52L42.7506 52L42.7506 31L41.2494 31Z" fill="#1B4744"/>
</svg>
