<svg width="20" height="20" viewBox="0 0 20 20" fill="none" xmlns="http://www.w3.org/2000/svg">
<path fill-rule="evenodd" clip-rule="evenodd" d="M9.99991 1.875C7.58367 1.875 5.62492 3.83376 5.62492 6.25V6.32679C4.52984 6.47647 3.72864 6.84657 3.20219 7.45118C2.49529 8.26302 2.43181 9.32958 2.54391 10.3082C2.54473 10.3154 2.54568 10.3226 2.54676 10.3298L3.13424 14.2467C3.22241 15.0314 3.43037 15.9006 4.1625 16.5468C4.88766 17.1867 6.00391 17.5 7.64301 17.5H12.3568C13.9959 17.5 15.1122 17.1867 15.8373 16.5468C16.5695 15.9006 16.7774 15.0314 16.8656 14.2467L17.4531 10.3298C17.4542 10.3226 17.4552 10.3154 17.4559 10.3082C17.5681 9.32958 17.5046 8.26302 16.7977 7.45118C16.2712 6.84657 15.47 6.47647 14.3749 6.32678V6.25C14.3749 3.83376 12.4162 1.875 9.99991 1.875ZM13.1249 7.5V8.75C13.1249 9.09517 13.4047 9.375 13.7499 9.375C14.0951 9.375 14.3749 9.09517 14.3749 8.75V7.59063C15.1674 7.72403 15.6079 7.98831 15.8549 8.27203C16.2072 8.67667 16.3132 9.28775 16.2152 10.1553L15.6277 14.0729C15.6265 14.0808 15.6255 14.0887 15.6246 14.0967C15.547 14.7963 15.388 15.2762 15.0102 15.6095C14.6217 15.9523 13.8761 16.25 12.3568 16.25H7.64301C6.12381 16.25 5.37809 15.9523 4.98961 15.6095C4.61186 15.2762 4.45286 14.7963 4.37526 14.0967C4.37438 14.0887 4.37335 14.0808 4.37216 14.0729L3.78458 10.1553C3.68661 9.28775 3.79261 8.67667 4.14491 8.27203C4.39195 7.98831 4.83244 7.72403 5.62492 7.59063V8.75C5.62492 9.09517 5.90474 9.375 6.24992 9.375C6.5951 9.375 6.87492 9.09517 6.87492 8.75V7.5H13.1249ZM13.1249 6.25C13.1249 4.52411 11.7258 3.125 9.99991 3.125C8.27403 3.125 6.87492 4.52411 6.87492 6.25H13.1249Z" fill="#364058"/>
</svg>
