<svg width="21" height="20" viewBox="0 0 21 20" fill="none" xmlns="http://www.w3.org/2000/svg">
<path d="M17.7548 4.2377C17.3638 3.84531 16.8996 3.53404 16.3887 3.32168C15.8778 3.10931 15.3302 3 14.7772 3C14.2242 3 13.6766 3.10931 13.1657 3.32168C12.6548 3.53404 12.1906 3.84531 11.7997 4.2377L10.9883 5.05166L10.177 4.2377C9.38726 3.44548 8.31621 3.00041 7.19941 3.00041C6.08262 3.00041 5.01156 3.44548 4.22187 4.2377C3.43217 5.02993 2.98853 6.10441 2.98853 7.22479C2.98853 8.34516 3.43217 9.41965 4.22187 10.2119L5.03323 11.0258L10.9883 17L16.9434 11.0258L17.7548 10.2119C18.1459 9.81967 18.4562 9.354 18.6679 8.84146C18.8796 8.32893 18.9885 7.77957 18.9885 7.22479C18.9885 6.67 18.8796 6.12064 18.6679 5.60811C18.4562 5.09557 18.1459 4.6299 17.7548 4.2377Z" stroke="#364058" stroke-width="1.5" stroke-linecap="round" stroke-linejoin="round"/>
</svg>
