<svg width="112" height="23" viewBox="0 0 112 23" fill="none" xmlns="http://www.w3.org/2000/svg">
<g clip-path="url(#clip0_182_1182)">
<path d="M11.4998 0C5.14867 0 0 5.14867 0 11.4998C0 17.8509 5.14867 22.9996 11.4998 22.9996C17.8509 22.9996 22.9996 17.8509 22.9996 11.4998C22.9996 5.14867 17.8513 0 11.4998 0ZM19.465 4.24779C19.7953 4.52538 20.3132 5.17865 20.4109 5.35857C20.5086 5.53892 20.5086 5.68114 20.4259 5.61388C20.3432 5.5462 20.2006 5.28361 19.9907 5.06599C19.7803 4.84837 19.1425 4.33047 18.8949 4.10514C18.6473 3.87981 17.5588 3.51955 16.9209 3.44458C16.283 3.36962 15.5471 3.54953 15.2018 3.62493C14.8566 3.69989 14.151 4.0079 13.9934 4.13555C13.8357 4.26321 13.6481 4.58578 13.7081 4.61576C13.768 4.64575 13.8807 4.52581 14.1883 4.30819C14.4959 4.09057 14.8338 4.01561 15.2168 3.88024C15.5998 3.7453 16.1849 3.71532 16.448 3.71532C16.711 3.71532 17.4688 3.81299 17.7841 3.91066C18.0994 4.00833 18.9925 4.49625 19.1502 4.6012C19.3078 4.70615 19.6831 5.1114 19.7658 5.21678C19.8484 5.32173 19.7358 5.43439 19.5032 5.17908C19.2705 4.92377 18.7077 4.54851 18.3624 4.39858C18.0171 4.24865 17.1312 3.92565 16.2458 3.96335C15.3599 4.00104 14.827 4.27092 14.3241 4.51895C13.8212 4.76655 13.6108 5.12682 13.4309 5.28446C13.2506 5.4421 12.9357 5.67471 12.4478 5.93003C11.9599 6.18534 11.8022 6.33527 11.4647 6.53061C11.1271 6.72595 10.8418 7.08622 10.5488 7.37109C10.2558 7.65596 9.97091 8.09933 9.67062 8.69948C9.37032 9.30007 9.28765 9.75801 9.28765 10.1033C9.28765 10.4485 9.34762 10.9215 9.28765 10.9592C9.22767 10.9969 8.99506 10.6889 8.99506 10.6889C8.99506 10.6889 9.01006 11.1018 8.97236 11.1391C8.93466 11.1768 8.81472 10.9892 8.76203 10.8165C8.70934 10.6439 8.64208 10.2609 8.66436 9.8107C8.68706 9.36047 9.07731 8.37692 9.54253 7.6491C10.0077 6.92086 10.6683 6.37297 11.0063 6.09538C11.3443 5.81779 12.2747 5.2549 12.59 5.09726C12.9053 4.93962 12.9653 4.7597 13.0929 4.63933C13.2206 4.51938 13.6185 4.13641 14.1215 3.80613C14.6244 3.47585 15.2622 3.31093 15.8705 3.17556C16.4784 3.04062 17.7095 3.30322 18.2275 3.51312C18.7454 3.72345 19.1356 3.97106 19.4659 4.24865L19.465 4.24779ZM19.0427 9.55495C19.1035 9.77343 19.0911 9.87067 18.9942 9.77343C18.897 9.67618 18.5085 9.02077 18.1928 8.69263C17.877 8.36492 17.4885 8.12203 17.5857 8.03679C17.5857 8.03679 18.1324 8.23127 18.3384 8.44974C18.5449 8.66821 18.9818 9.33605 19.0427 9.55495ZM18.7149 8.42575C18.7149 8.42575 19.2007 8.8023 19.3584 9.15442C19.5164 9.50655 19.5404 9.76143 19.4556 9.73744C19.3708 9.71303 19.1643 9.33691 18.9334 8.93595C18.7025 8.53542 18.5085 8.38934 18.7149 8.42575ZM17.9863 8.69306C18.314 9.03319 18.6177 9.59179 18.5569 9.66462C18.496 9.73744 18.4112 9.59179 18.1803 9.34891C17.9494 9.10602 17.4152 8.46259 17.112 8.32894C16.8087 8.19528 16.2132 8.02522 15.9583 8.00123C15.7035 7.97681 15.7154 7.85558 15.7154 7.85558C15.7154 7.85558 16.5169 7.77076 16.9175 7.9404C17.318 8.11047 17.6581 8.35336 17.9858 8.69306H17.9863ZM16.6506 8.34093C17.1848 8.49258 17.4105 8.76717 17.5857 8.95394C17.7562 9.136 18.0201 9.46157 18.0107 9.56738C18.0021 9.66419 17.9015 9.6522 17.8286 9.57937C17.7558 9.50655 17.2516 8.89054 16.8571 8.71705C16.4017 8.51657 15.8371 8.40733 15.4062 8.40133C15.0609 8.39662 14.878 8.46816 14.8171 8.41333C14.8171 8.41333 14.9628 8.24926 15.1937 8.20085C15.4246 8.15245 16.3991 8.26897 16.651 8.3405L16.6506 8.34093ZM16.472 14.4029C16.4458 14.0067 16.4741 13.9775 16.4741 13.9775C16.4741 13.9775 16.9385 14.7058 16.6609 15.8838C16.4484 16.7842 16.1644 17.6003 15.7767 18.1649C15.3518 18.7843 14.8253 19.1198 14.9996 18.8572C15.174 18.5946 15.5171 18.0839 15.7283 17.7888C15.9395 17.4932 16.4266 16.0397 16.4818 15.6178C16.5349 15.2125 16.4994 14.8154 16.4724 14.4033L16.472 14.4029ZM16.0436 16.4608C15.8491 17.3026 15.0399 18.6627 14.3759 19.3104C13.7119 19.9581 12.5142 20.557 11.672 20.6217C10.8302 20.6863 10.069 20.0875 9.77771 19.4723C9.48641 18.8572 9.71303 18.0959 10.0206 17.578C10.3282 17.0601 11.089 16.7037 11.3319 16.5418C11.5748 16.3799 11.4775 16.5902 11.3481 16.72C11.2188 16.8494 10.8786 17.1732 10.8786 17.1732C11.3644 16.7037 12.4979 16.4771 12.2062 16.6712C11.9149 16.8656 10.814 17.6102 10.5711 17.8693C10.3282 18.1285 9.81027 18.7921 10.6195 19.5533C11.4287 20.3145 12.7566 19.7478 13.469 19.2294C14.1814 18.7111 14.8291 17.8856 15.2498 16.8656C15.6705 15.8457 15.7519 14.5503 15.6867 14.2106C15.6221 13.8704 15.6867 13.6601 15.7677 13.9351C15.8487 14.2106 15.9459 14.3074 15.9459 14.1617C15.9459 14.0161 15.9134 13.3846 15.9134 13.3846C15.9134 13.3846 16.0427 13.3362 16.1725 13.8541C16.3023 14.3721 16.2372 15.6191 16.0432 16.4608H16.0436ZM7.21987 16.5092C7.05794 16.5418 6.54004 16.6386 6.13522 16.7358C5.7304 16.8331 5.2609 16.7358 4.93705 16.7358C4.61319 16.7358 4.09529 16.5092 4.01432 16.412C3.93336 16.3147 4.15997 16.3147 4.3703 16.3794C4.58064 16.4441 5.42283 16.4767 6.11894 16.4441C6.81505 16.4116 7.04166 16.0556 7.21987 16.0393C7.39807 16.023 8.6121 15.9583 9.37332 15.9909C10.1341 16.0235 11.1866 15.392 11.8181 14.9709C12.4495 14.5498 12.7734 13.6434 12.8706 13.3033C12.9678 12.9631 13.0651 12.2186 13.0651 12.2186C13.2754 12.1539 13.2107 12.7853 13.1623 13.2064C13.1139 13.6275 13.1623 13.7732 13.2758 13.5787C13.3894 13.3842 13.5671 12.6718 13.5997 13.0282C13.6322 13.3846 13.2596 14.3883 12.7579 14.9225C12.2936 15.4169 11.1065 16.2663 10.6045 16.3957C10.1024 16.5251 8.69392 16.7033 8.30538 16.7358C7.91684 16.7684 7.12349 17.1244 6.60515 17.2379C6.08724 17.3514 5.16409 17.2379 4.74342 17.1895C4.32233 17.1411 3.23768 16.6228 3.01106 16.4287C2.78445 16.2342 2.96266 16.1858 3.07575 16.2184C3.18884 16.2509 3.57781 16.5097 3.88538 16.6553C4.19296 16.801 5.08355 16.9466 5.63402 16.9954C6.18448 17.0443 7.12349 16.8172 7.28541 16.7041C7.44734 16.5906 7.38265 16.4775 7.22073 16.5097L7.21987 16.5092ZM8.33708 15.2789C8.74189 15.0686 10.021 14.7932 10.2314 14.6801C10.4417 14.5665 11.2029 14.3078 11.6077 13.5466C11.6077 13.5466 11.8181 13.0933 11.8181 12.7048C11.8181 12.3163 11.8828 12.0408 11.9153 12.1869C11.9479 12.3326 12.061 12.8667 12.061 12.8667C12.061 12.8667 12.2392 12.8183 12.2554 12.5913C12.2717 12.3647 12.4174 12.2353 12.4174 12.381C12.4174 12.5266 12.5146 13.1418 12.288 13.5954C12.0614 14.0486 11.3327 14.8099 10.9605 15.0202C10.5882 15.2305 9.06618 15.5381 8.69392 15.5707C8.32166 15.6032 7.93312 15.4897 8.33793 15.2794L8.33708 15.2789ZM14.4286 16.6712C14.2465 17.0961 13.7488 17.7275 13.5179 17.9824C13.287 18.2373 12.5587 18.7839 12.3158 18.8687C12.073 18.9536 11.4779 19.0996 11.3079 19.0996C11.1378 19.0996 11.0042 18.9904 11.3927 18.9296C11.7812 18.8687 12.5707 18.4194 12.8256 18.2253C13.0805 18.0308 13.6635 17.4602 13.8212 17.1933C13.9792 16.926 14.3189 16.307 14.3798 16.0517C14.4406 15.7964 14.6347 15.5295 14.6347 15.6632C14.6347 15.6632 14.6102 16.2462 14.4282 16.6712H14.4286ZM14.8617 16.0072C15.0009 15.6186 15.0399 15.6024 15.0399 15.6024C15.0399 15.6024 15.1817 16.4887 14.4286 17.4966C13.8529 18.2673 13.2913 18.954 12.6273 19.2127C11.9633 19.4719 11.2672 19.585 11.5426 19.4072C11.8181 19.229 12.6273 18.9214 12.9511 18.7274C13.275 18.5329 14.1403 17.548 14.3678 17.1689C14.5862 16.8048 14.7169 16.4111 14.8617 16.0072ZM12.1496 17.019C12.3116 16.8896 12.4898 16.9218 12.36 17.0837C12.2306 17.2456 11.7285 17.5695 11.7285 17.5695C11.3237 17.5695 11.9877 17.1484 12.1496 17.019ZM12.7973 17.5048C12.9593 17.3754 13.1375 17.4075 13.0077 17.5695C12.8783 17.7314 12.3762 18.0552 12.3762 18.0552C11.9714 18.0552 12.6354 17.6341 12.7973 17.5048ZM12.7408 17.3184C12.2632 17.6826 12.1903 17.707 12.0121 17.7717C11.8339 17.8363 12.3681 17.2696 12.692 17.0267C13.0158 16.7838 13.275 16.7191 13.2587 16.8164C13.2424 16.9136 12.7408 17.3184 12.7408 17.3184ZM15.8902 9.33991C15.4511 9.19512 15.2091 9.21611 15.3873 9.10559C15.3873 9.10559 16.0003 9.06232 16.3529 9.21953C16.7054 9.37675 16.8935 9.55067 16.8138 9.58922C16.7341 9.62778 16.3293 9.48513 15.8902 9.34034V9.33991ZM16.1044 8.94066C15.6679 8.81172 15.21 8.79287 15.2524 8.67121C15.2524 8.67121 15.8234 8.56969 16.1108 8.6575C16.3983 8.74532 17.1085 9.10944 17.2696 9.26966C17.4307 9.42944 17.4679 9.51983 17.3356 9.48384C17.2032 9.44743 16.5409 9.0696 16.1044 8.94109V8.94066ZM15.38 12.3968C15.2828 13.3846 14.8458 14.3558 14.441 14.809C14.0362 15.2622 13.2266 15.748 13.2266 15.748C13.2266 15.748 13.6314 15.0682 14.1172 14.1939C14.603 13.3195 15.0887 12.073 14.603 10.7938C14.1172 9.51469 13.0972 9.38532 12.6761 9.38532C12.255 9.38532 11.7371 9.85482 11.8343 10.3732C11.9316 10.8911 12.5793 11.5388 13.2266 10.4057C13.2266 10.4057 13.5586 10.8671 13.2022 11.2963C12.952 11.5979 12.2066 11.8793 11.5752 11.361C10.9438 10.8431 11.0894 9.82269 11.5268 9.38575C11.9637 8.9488 12.7249 8.54398 14.0525 9.20754C15.38 9.87152 15.4773 11.4094 15.38 12.3972V12.3968ZM13.915 11.8626C13.7046 11.2959 13.7612 11.1986 13.8666 11.134C13.972 11.0693 14.2551 11.4252 14.2877 11.9436C14.3202 12.4619 14.1741 13.4168 14.0448 13.6113C14.0448 13.6113 14.1257 12.4294 13.9154 11.8626H13.915ZM10.5257 10.6285C10.5334 10.7184 10.5334 10.936 10.413 10.7784C10.293 10.6208 10.1804 10.1328 10.1804 10.1328V10.5758C10.1804 10.7034 10.2181 10.936 10.0677 10.8084C9.91736 10.6807 9.80513 10.4404 9.79742 10.1328C9.78971 9.82526 9.97005 9.1647 10.075 8.8944C10.18 8.62409 10.7086 7.883 10.9682 7.58099C11.3361 7.15304 11.591 7.19074 11.591 7.19074C11.591 7.19074 11.4158 7.39807 11.0354 8.03122C10.6752 8.6318 10.5625 9.1797 10.5625 9.1797C10.3222 10.1478 10.5248 10.6285 10.5248 10.6285H10.5257ZM3.99547 10.5835C3.46257 10.1705 2.8697 8.92481 2.7943 8.50415C2.71891 8.08348 2.82429 7.19074 2.90697 6.86774C2.98964 6.54518 3.63521 5.65158 3.8978 5.47166C4.1604 5.29132 4.43842 5.19407 4.49068 5.3817C4.54337 5.56933 4.46069 5.71926 4.36302 5.81693C4.26535 5.9146 3.8978 6.16992 3.75516 6.4398C3.61251 6.70967 3.37219 7.32568 3.40217 7.93355C3.43216 8.54141 3.67976 9.08203 3.86011 9.45728C4.04045 9.83254 4.64061 10.3505 5.05357 10.5531C5.46652 10.7557 6.74994 11.1537 7.17789 11.2059C7.60584 11.2586 7.59084 11.3336 7.49317 11.3708C7.3955 11.4081 7.06523 11.4308 7.06523 11.4308C7.34281 11.4535 7.65082 11.6412 7.59813 11.6784C7.54544 11.7157 7.11792 11.7311 6.20205 11.5957C5.28618 11.4604 4.52838 10.9952 3.99505 10.5826L3.99547 10.5835ZM4.1604 11.5516C3.8751 11.349 3.31992 10.6734 3.20726 10.4708C3.0946 10.2682 3.19227 10.1555 3.3799 10.4258C3.53069 10.6426 3.68105 10.8354 3.73459 10.9031C3.74787 10.9198 3.75516 10.9288 3.75516 10.9288L4.67103 11.7847C4.74599 11.9123 4.4457 11.7547 4.1604 11.552V11.5516ZM4.74599 9.08974C4.83595 9.28508 5.18893 9.90794 5.08355 9.88523C4.9786 9.86253 4.72329 9.465 4.55793 9.17198C4.39258 8.87897 4.26535 8.15116 4.25036 7.87357C4.23537 7.59599 4.26535 7.2807 4.31033 7.258C4.35531 7.23529 4.36302 7.39293 4.39301 7.62597C4.423 7.85858 4.49796 8.30152 4.49796 8.30152C4.49796 8.30152 4.6556 8.8944 4.74556 9.08974H4.74599ZM4.64104 7.43834C4.65603 7.36338 4.731 7.50603 4.78369 7.76091C4.83638 8.01579 4.91135 8.36878 4.91135 8.36878C4.91135 8.36878 5.06899 8.78173 5.13667 9.04433C5.20436 9.30692 5.3016 9.49455 5.20436 9.43458C5.10669 9.37461 4.8291 8.75132 4.72414 8.43646C4.61919 8.12118 4.62647 7.51331 4.64147 7.43834H4.64104ZM4.42342 9.49498C4.35574 9.47228 4.1981 9.25466 4.04816 8.86441C3.89823 8.47416 3.82284 8.00123 3.83055 7.73092C3.83826 7.46062 3.98048 7.4906 4.0109 7.76091C4.04088 8.03122 4.10857 8.3465 4.10857 8.3465C4.10857 8.3465 4.17625 8.66907 4.2585 8.84942C4.34118 9.02976 4.49111 9.51726 4.42342 9.49498ZM5.64387 12.1698C5.64387 12.1698 5.78438 12.2023 6.00071 12.2996C6.21704 12.3968 6.75765 12.4619 7.03867 12.5373C7.31968 12.6127 8.20599 12.6346 8.36835 12.6238C8.5307 12.6131 8.37906 12.7318 8.23855 12.7969C8.09804 12.8616 7.92498 12.8727 7.92498 12.8727C8.28182 12.916 8.57354 13.1105 8.43303 13.1323C8.29253 13.1538 7.54672 13.1649 6.88702 13.0458C6.22775 12.9267 5.9463 12.6136 5.74111 12.3972C5.53592 12.1809 5.64387 12.1702 5.64387 12.1702V12.1698ZM8.11861 6.28087C8.12675 6.57645 8.20771 7.41821 8.24798 7.62469C8.28824 7.83116 8.40176 8.2317 8.39791 8.34093C8.39405 8.45017 8.35336 8.43389 8.35336 8.43389C8.35336 8.43389 8.15887 8.13017 8.06206 7.67695C7.96482 7.22373 7.90013 6.09838 7.94083 5.64516C7.9811 5.19193 8.38206 4.45898 8.51143 4.20838C8.6408 3.95735 8.92438 3.58894 9.05804 3.41117C9.19169 3.23339 9.51554 2.91725 9.80298 2.67864C10.0904 2.44004 10.479 2.16459 10.9121 2.01894C11.3451 1.87329 11.8027 1.85702 12.0738 1.85316C12.345 1.8493 12.7498 1.9624 12.9074 2.04764C13.0651 2.13289 12.9276 2.15688 12.7901 2.13675C12.6526 2.11661 12.3934 2.07206 12.1342 2.07592C11.875 2.07977 11.4137 2.1406 11.1991 2.19329C10.9844 2.24598 10.5676 2.4319 10.422 2.51286C10.2763 2.59382 9.83897 2.9014 9.72159 3.02306C9.60422 3.14429 9.2114 3.55339 9.12272 3.67076C9.03362 3.78814 8.69777 4.32233 8.6288 4.46412C8.55983 4.60591 8.33751 5.04714 8.26854 5.26133C8.19957 5.47595 8.11047 5.98572 8.11861 6.2813V6.28087ZM10.2031 2.07163C10.1431 2.17658 9.58023 2.52186 9.27223 2.82215C8.96465 3.12244 8.47673 3.82798 8.28139 4.12056C8.08605 4.41314 7.78618 5.44168 7.73349 5.76424C7.6808 6.08681 7.65082 7.01768 7.70351 7.258C7.7562 7.49831 7.93612 8.09119 8.0038 8.25611C8.07148 8.42104 8.19143 8.69135 8.16144 8.74404C8.13146 8.79673 7.80118 8.36107 7.73349 8.12118C7.66581 7.88086 7.4709 7.36295 7.4709 6.73238C7.4709 6.10181 7.57585 5.20093 7.84616 4.5031C8.11646 3.80485 8.514 3.32464 9.1073 2.6418C9.1073 2.6418 9.43758 2.3715 9.6779 2.22156C9.91822 2.07163 10.2635 1.96625 10.2035 2.07163H10.2031ZM8.34136 6.87588C8.33322 6.60472 8.39791 5.77495 8.43046 5.59289C8.46302 5.41083 8.68963 4.76313 8.84727 4.43542C9.00535 4.10771 9.28036 3.78771 9.4907 3.55296C9.70103 3.31821 10.114 2.95794 10.3689 2.82044C10.6238 2.68293 11.1622 2.43575 11.5144 2.37535C11.8665 2.31452 12.2349 2.3308 12.4452 2.34708C12.6555 2.36336 12.7935 2.42804 12.7892 2.47645C12.7849 2.52486 12.4534 2.48459 12.0524 2.50087C11.6519 2.51714 11.2629 2.67479 10.9879 2.76003C10.7124 2.84485 10.2022 3.19227 10.0116 3.35805C9.82098 3.52383 9.5738 3.80999 9.46799 3.92651C9.36218 4.04302 8.94537 4.74214 8.85713 4.92891C8.76888 5.11611 8.68406 5.53249 8.65236 5.74797C8.62066 5.96344 8.57483 6.46121 8.57483 6.73281C8.57483 7.0044 8.6665 7.72493 8.67378 7.87315C8.68106 8.02136 8.63866 8.0355 8.63866 8.0355C8.63866 8.0355 8.54698 7.98195 8.51057 7.84402C8.47416 7.70651 8.34864 7.1479 8.3405 6.87674L8.34136 6.87588ZM9.80256 5.28103C9.53525 5.56034 9.25595 6.14336 9.25595 6.14336C9.08588 5.93688 9.48684 5.30545 9.69289 5.08698C9.89894 4.86851 10.4456 4.43113 10.6036 4.34632C10.7617 4.2615 10.7981 4.40715 10.628 4.56479C10.458 4.72243 10.0694 5.00173 9.80213 5.28103H9.80256ZM10.0574 5.58475C9.82655 5.83964 9.55967 6.2406 9.55967 6.2406C9.34119 6.27701 9.75415 5.63359 9.97262 5.37828C10.1911 5.12339 10.3732 4.98974 10.422 5.02615C10.4704 5.06256 10.2883 5.32987 10.0579 5.58475H10.0574ZM10.1101 4.47569C10.1101 4.47569 9.85096 4.66203 9.74173 4.66203C9.63249 4.66203 9.86296 4.39472 10.1183 4.18824C10.3736 3.98177 10.8105 3.79971 10.9442 3.8117C11.0778 3.8237 10.99 3.9475 10.8105 4.05459C10.646 4.15312 10.1118 4.4684 10.1101 4.47569ZM10.7536 3.63778C10.5432 3.7226 10.1183 4.00618 10.1183 4.00618C9.88352 4.11542 9.8998 4.05887 9.93621 3.99804C9.97262 3.93722 10.2399 3.69861 10.5149 3.5611C10.79 3.42359 11.0774 3.30622 11.1871 3.30193C11.2963 3.29808 11.2762 3.39917 11.2316 3.43944C11.1871 3.47971 10.9643 3.55296 10.754 3.63778H10.7536ZM13.2728 3.83526C13.4682 3.73031 13.8135 3.51269 14.0084 3.42231C14.2037 3.33235 14.211 3.48999 14.211 3.48999C14.211 3.48999 13.9334 3.65491 13.6931 3.82027C13.4528 3.98519 13.0852 4.19553 13.0852 4.19553C12.9126 4.26321 13.0775 3.94021 13.2728 3.83526ZM17.0558 2.19886C17.3934 2.26654 17.4461 2.40919 17.4461 2.40919C17.4461 2.40919 17.0708 2.38649 16.8605 2.3715C16.6502 2.3565 16.4103 2.42419 16.5829 2.46146C16.7555 2.49915 17.1235 2.59639 17.2662 2.67179C17.4088 2.74718 17.2435 2.73947 16.801 2.6795C16.358 2.61953 16.1027 2.6568 16.0127 2.67179C15.9228 2.68678 15.3749 2.73176 14.9469 2.80673C14.519 2.88169 13.4155 3.44458 12.913 3.75258C12.4101 4.06016 11.9397 4.75713 11.6968 4.98374C11.2539 5.3967 11.0513 5.30631 11.0513 5.30631C10.9913 5.26861 11.0963 5.08869 11.1789 4.90835C11.2616 4.728 11.5692 4.1951 11.9744 3.75258C12.3797 3.30964 12.8826 2.96437 13.7158 2.55141C14.549 2.13846 15.2245 2.09348 15.7347 2.05621C16.2449 2.01894 16.7178 2.13118 17.0558 2.19886ZM12.5707 0.67855C13.2506 0.787786 13.8092 1.15233 14.0037 1.27357C14.1981 1.3948 14.3438 1.6621 14.283 1.65011C14.2221 1.63811 13.5179 1.35881 13.5179 1.35881C13.5179 1.35881 13.7363 1.52888 13.9792 1.71094C14.2221 1.893 13.9184 1.90542 13.7608 1.80818C13.6027 1.71094 13.1777 1.29798 11.8421 1.20117C10.5064 1.10393 9.78242 1.6137 9.33948 1.95169C8.89654 2.28968 8.24369 2.99521 7.95068 3.40046C7.6581 3.8057 7.29012 4.87922 7.23015 5.38213C7.17018 5.88505 7.11021 6.79321 7.16247 7.31883C7.21516 7.84444 7.59042 8.77488 7.77033 9.09788C7.95068 9.42044 8.08562 9.66076 8.01065 9.66847C7.93569 9.67618 7.74035 9.49584 7.74035 9.49584C7.76734 9.6055 7.73735 9.76272 7.70094 9.76272C7.66453 9.76272 7.10592 9.15571 6.93586 8.6091C6.76579 8.06249 6.49891 6.88488 6.49891 6.43551C6.49891 5.98614 6.69339 4.56564 6.87545 4.07986C7.05752 3.59408 7.70137 2.64694 8.01708 2.23399C8.33279 1.82103 9.82655 0.886312 10.4336 0.691829C11.0406 0.497346 11.8909 0.570598 12.5707 0.679835V0.67855ZM6.38196 7.55058C6.47963 8.0762 6.77222 8.75175 6.8022 8.84171C6.83219 8.93167 6.86217 9.20968 6.71224 8.98436C6.56231 8.75903 6.35198 8.33879 6.24703 7.94854C6.14207 7.55829 5.98443 6.7101 6.0217 6.16949C6.04655 5.81008 6.14164 5.19365 6.17934 5.11097C6.21704 5.02829 6.28429 5.22363 6.28429 5.43354C6.28429 5.64344 6.2316 6.37939 6.2316 6.37939C6.2316 6.37939 6.28429 7.02496 6.38154 7.55015L6.38196 7.55058ZM7.83074 1.13306C8.1683 0.907731 8.67121 0.862752 8.77659 0.877745C8.88155 0.892738 8.74661 0.952711 8.64165 1.04267C8.5367 1.13263 7.83845 1.67324 7.57585 1.90585C7.31326 2.13846 6.88531 2.80673 6.66769 3.0916C6.45008 3.3769 6.01484 4.54765 5.87948 4.88564C5.74454 5.2232 5.68414 6.51433 5.69913 6.77736C5.71412 7.03995 5.84906 7.92584 6.15707 8.52642C6.46464 9.12701 7.07294 9.9602 7.27556 10.1251C7.47818 10.29 7.44048 10.4477 7.33553 10.3877C7.249 10.3385 6.97398 10.1465 6.87974 10.0801C6.8596 10.066 6.84761 10.0574 6.84761 10.0574L7.15519 10.3277C7.30512 10.4854 7.38051 10.7107 7.26785 10.6807C7.15519 10.6507 6.81762 10.4854 6.48735 10.1628C6.15707 9.84025 5.68414 9.08203 5.49651 8.6091C5.30888 8.13617 5.09855 7.17532 5.07627 6.66512C5.05357 6.1545 5.21121 5.05142 5.29389 4.72843C5.37656 4.40586 5.85677 3.28737 6.16478 2.76175C6.47278 2.23613 7.49317 1.35796 7.83116 1.13306H7.83074ZM4.99317 2.96137C5.12125 2.8894 5.4451 2.86156 5.50508 2.86542C5.56505 2.86927 5.46909 2.97337 5.353 3.02948C5.23691 3.0856 5.00516 3.10145 5.00516 3.10145C4.71729 3.10531 4.86508 3.03334 4.99317 2.96137ZM4.5408 3.41717C4.70829 3.36105 5.14353 3.30107 5.25662 3.30107C5.36971 3.30107 5.26518 3.38118 5.26518 3.38118C4.91777 3.56496 4.62476 3.5611 4.46969 3.55724C4.31462 3.55339 4.3733 3.47328 4.5408 3.41717ZM3.35034 4.37673C3.49813 4.24865 3.84597 4.00875 4.094 3.90894C4.34203 3.80913 4.74171 3.777 4.85737 3.76886C4.97346 3.76072 5.04114 3.81299 5.0133 3.87296C4.98545 3.93293 4.75756 3.96892 4.75756 3.96892C4.75756 3.96892 4.58149 3.98091 4.4337 4.03274C4.28591 4.08458 3.84597 4.26878 3.71403 4.3566C3.58209 4.44441 3.13015 4.73228 3.09417 4.73228C3.05819 4.73228 3.20212 4.50439 3.34991 4.3763L3.35034 4.37673ZM1.65482 7.40236C1.68738 7.13205 1.87115 6.4188 2.01166 6.12665C2.15217 5.83493 2.31452 5.57533 2.37921 5.52135C2.44389 5.46738 2.45503 5.44553 2.42247 5.67257C2.38992 5.89961 2.30338 6.16992 2.30338 6.16992C2.30338 6.16992 2.73562 5.49951 2.88726 5.30502C3.03848 5.11054 3.34134 4.85094 3.83869 4.52666C4.33603 4.20238 4.75756 4.14841 4.80082 4.18053C4.84409 4.21309 4.91991 4.26707 4.70358 4.39686C4.48725 4.52666 3.9038 4.76441 3.62236 4.99145C3.34134 5.21849 2.79002 5.80237 2.56298 6.34255C2.33594 6.88317 2.18472 7.82345 2.24941 8.43989C2.31409 9.05589 2.69278 10.1804 3.12501 10.8829C3.55724 11.5855 5.16837 12.9803 5.76253 13.2506C6.35669 13.5209 7.71936 13.7154 8.05435 13.7372C8.38934 13.7586 9.80556 13.6507 10.1084 13.4776C10.4113 13.3045 10.7463 12.7318 10.6383 12.4941C10.5304 12.2563 10.4331 11.9641 10.1303 11.932C9.8274 11.8999 9.65605 11.9059 9.43844 12.0511C9.17884 12.2242 9.13557 12.4726 9.10344 12.5485C9.07089 12.6243 8.8764 12.6131 8.91967 12.2567C8.91967 12.2567 8.90939 12.27 8.89354 12.2889C8.84342 12.348 8.73633 12.4628 8.70334 12.3972C8.66007 12.3107 8.82243 11.8245 9.04947 11.6189C9.27651 11.4137 9.7413 11.2081 10.2712 11.3486C10.8011 11.4891 11.2333 11.9646 11.2873 12.4298C11.3413 12.8946 11.0389 13.5324 10.7574 13.792C10.4764 14.0516 9.63335 14.3759 8.72519 14.3648C7.81703 14.3541 6.63899 14.3108 5.74154 13.8893C4.84409 13.4678 3.43901 12.4949 2.93096 11.738C2.4229 10.9815 1.87158 10.0733 1.74178 9.26237C1.61198 8.45145 1.62269 7.67309 1.65525 7.40279L1.65482 7.40236ZM0.86575 9.09959C0.86575 9.09959 0.86575 9.20754 0.952283 9.68347C1.03881 10.159 1.13606 10.6023 1.33054 11.2616C1.52502 11.9209 2.18472 12.9588 3.14686 13.7265C4.10899 14.4941 5.31959 14.5695 5.91418 14.6886C6.50876 14.8077 6.96413 14.8428 6.9954 14.905C7.06009 15.0348 6.2603 15.0022 6.2603 15.0022C6.5953 15.0669 6.79021 15.186 6.74694 15.2399C6.70368 15.2939 6.37939 15.2832 6.0444 15.3046C5.70941 15.3261 4.6933 15.2721 3.59066 14.7426C2.48801 14.2127 1.38537 12.9695 1.03924 12.2456C0.693114 11.5212 0.693114 10.3753 0.682405 9.99704C0.671696 9.61878 0.866179 9.09959 0.866179 9.09959H0.86575ZM1.29798 14.4509C1.1035 14.1913 0.951854 13.867 1.07094 13.921C1.19003 13.975 1.69809 14.5588 1.89257 14.6561C2.08705 14.7533 2.08705 14.6993 2.08705 14.6993C2.08705 14.6993 1.58971 14.1913 1.43849 13.9535C1.28727 13.7158 1.07094 13.3808 1.19003 13.4348C1.30912 13.4887 1.91442 14.2238 2.18472 14.5049C2.45503 14.7859 3.43858 15.3265 3.80613 15.467C4.17368 15.6075 4.40072 15.6508 4.37887 15.7154C4.35703 15.7801 3.41674 15.7047 2.94124 15.5531C2.46574 15.4019 1.49247 14.71 1.29798 14.4504V14.4509ZM2.6508 17.2957C2.46274 17.1389 2.40791 16.9432 2.49401 16.9903C2.58012 17.0374 2.94081 17.3429 3.12073 17.4838C3.30107 17.6247 3.73202 17.6329 3.54397 17.5309C3.35591 17.429 3.20683 17.3351 2.99521 17.1625C2.7836 16.9903 2.21942 16.3477 2.10205 16.2064C1.98467 16.0654 2.24298 16.0731 2.3685 16.2689C2.49401 16.4647 2.71334 16.6373 2.71334 16.6373C2.79945 16.7316 3.52812 17.3112 4.16297 17.5305C4.79782 17.7498 5.40912 17.8441 5.981 17.8595C6.55289 17.8753 7.32097 17.7888 7.68166 17.6873C8.04193 17.5853 8.81772 17.327 9.00577 17.2953C9.19383 17.264 9.29579 17.3501 9.29579 17.4444C9.29579 17.5386 8.9745 17.8441 8.36321 18.1028C7.75191 18.3615 7.07808 18.5415 6.27873 18.5102C5.47937 18.4789 4.86037 18.4082 4.15526 18.2125C3.45015 18.0167 2.83886 17.4525 2.6508 17.2957ZM9.23924 19.8266C9.11844 19.7139 8.87683 19.0054 8.87683 18.8927C8.87683 18.7801 8.94109 18.7479 8.99763 18.8203C9.05418 18.8927 9.1103 19.223 9.1103 19.223C9.17455 19.3999 9.2311 19.4886 9.28722 19.6257C9.34376 19.7623 9.35961 19.9397 9.23881 19.827L9.23924 19.8266ZM8.75089 19.5503C8.63737 19.4655 8.4099 18.9338 8.4099 18.849C8.4099 18.7642 8.4703 18.7402 8.52342 18.7946C8.57654 18.849 8.62966 19.0966 8.62966 19.0966C8.69006 19.2294 8.74318 19.2963 8.7963 19.3986C8.84942 19.5014 8.86441 19.6342 8.75089 19.5499V19.5503ZM7.16204 20.0922C7.05752 20.0759 6.72724 19.9632 6.46978 19.7863C6.21233 19.6094 5.90647 19.1262 5.92232 19.0778C5.93859 19.0294 6.14764 19.1823 6.14764 19.1823C6.36483 19.3755 6.84804 19.7216 7.04124 19.8587C7.23443 19.9954 7.26656 20.1085 7.16204 20.0922ZM7.70137 20.6478C7.87057 20.7365 7.87829 20.817 7.74163 20.817C7.60498 20.817 7.06523 20.6478 6.71139 20.4709C6.35712 20.2939 5.63273 19.6094 5.48794 19.3922C5.34315 19.175 5.41554 19.0863 5.49608 19.1266C5.57661 19.1669 5.70556 19.3601 5.70556 19.3601C5.85849 19.5212 6.2286 19.851 6.615 20.1007C7.0014 20.3505 7.53259 20.5595 7.70179 20.6482L7.70137 20.6478ZM5.64858 20.6881C5.59204 20.712 5.27846 20.4627 5.01244 20.2451C4.74642 20.0275 4.31205 19.3755 4.20752 19.271C4.103 19.1665 4.18353 19.0135 4.26407 19.0538C4.3446 19.0941 4.5378 19.3759 4.5378 19.3759C4.67445 19.5529 5.23006 20.1569 5.40741 20.3256C5.58433 20.4949 5.70513 20.6636 5.64901 20.6881H5.64858ZM5.75311 20.3501C5.55177 20.1809 4.84366 19.3438 4.80339 19.2474C4.76313 19.151 4.84366 19.0863 4.90792 19.1587C4.97217 19.2311 5.22192 19.4886 5.22192 19.4886C5.22192 19.4886 5.64044 20.0116 5.86577 20.1727C6.0911 20.3338 6.79149 20.7763 7.1539 20.8812C7.51631 20.9858 8.14388 21.1713 8.20043 21.1952C8.25697 21.2192 8.4099 21.3319 8.24883 21.3482C8.08776 21.3645 7.79818 21.2998 7.3471 21.2115C6.89644 21.1229 5.95444 20.5193 5.75311 20.3501ZM9.18227 22.0062C9.01306 21.9291 8.77188 21.8177 8.44974 21.8005C8.1276 21.7834 7.95882 21.6977 7.90228 21.6206C7.84573 21.5435 7.95068 21.5607 8.10361 21.5949C8.25654 21.6292 8.61895 21.6206 8.90039 21.672C9.18227 21.7234 9.41573 21.8691 9.41573 21.8691C9.70574 22.049 9.35148 22.0833 9.18227 22.0062ZM10.1543 21.5774C9.36475 21.4073 8.25997 20.3265 8.07791 20.1444C7.89585 19.9624 7.59213 19.0516 7.64096 19.0152C7.68937 18.9788 7.84744 19.2825 7.89585 19.4282C7.94426 19.5738 8.21156 19.7923 8.21156 19.7923C8.21156 19.7923 8.0415 19.1729 8.0295 19.0397C8.01751 18.906 8.15073 18.9184 8.35721 19.319C8.56369 19.7195 9.02505 20.3998 10.1667 20.9219C11.3083 21.4441 12.7408 20.8855 13.4091 20.6671C14.0773 20.4486 15.2425 19.3314 15.6799 18.8456C16.1168 18.3598 16.5058 17.5463 16.7119 16.9997C16.9179 16.4531 17.0276 15.506 17.0032 14.5468C16.9787 13.5877 16.6026 12.871 16.4445 12.5069C16.2865 12.1428 15.9832 11.6082 16.0076 11.5718C16.032 11.5353 16.4081 11.8631 16.4081 11.8631C16.4081 11.8631 16.5294 11.9843 16.481 11.8386C16.4326 11.693 16.2625 11.3648 16.2261 11.268C16.1897 11.1708 16.3233 11.256 16.639 11.5718C16.9547 11.8875 17.0884 12.2396 17.3677 13.1383C17.647 14.0371 17.6106 15.0206 17.5133 15.8461C17.4161 16.672 17.1004 17.9469 16.2141 19.1489C15.3278 20.3509 14.259 21.0312 13.0569 21.5045C11.8549 21.9779 10.9442 21.7474 10.1547 21.5774H10.1543ZM18.3483 15.1183C18.2836 14.9337 18.2977 14.6869 18.3517 14.7709C18.3517 14.7709 18.5719 15.1466 18.6293 15.4876C18.6862 15.8281 18.6276 16.427 18.5856 16.6806C18.5436 16.9342 18.305 17.5733 18.1863 17.725C18.0677 17.8766 17.7515 18.2099 17.6444 18.2789C17.5373 18.3478 17.4088 18.3337 17.6294 18.1375C17.8501 17.9413 18.1658 17.339 18.248 17.1137C18.3303 16.8883 18.4669 16.2933 18.4583 16.0616C18.4498 15.8298 18.4138 15.3029 18.3491 15.1183H18.3483ZM18.266 18.6995C18.5937 18.2382 18.9583 17.5459 19.1767 16.9265C19.3952 16.307 19.2376 15.1778 19.0919 14.7045C18.9463 14.2307 18.3632 13.4296 18.1568 13.1867C17.9503 12.9438 17.8046 12.713 17.8046 12.713C17.9503 12.6281 18.667 13.1623 19.1523 14.2307C19.6381 15.2991 19.6017 16.1858 19.4316 16.9385C19.2616 17.6911 18.8002 18.5779 18.0475 19.3429C17.2949 20.108 16.2017 20.6542 16.0076 20.7639C15.8135 20.8735 15.0725 21.1768 15.0121 21.116C14.9512 21.0552 15.2305 20.9215 15.5098 20.8003C15.7891 20.6791 16.2141 20.3753 16.7483 20.0716C17.2825 19.7679 17.9383 19.1609 18.266 18.6995ZM17.8162 17.1137C17.8942 16.9158 18.0291 16.391 18.027 16.1849C18.0248 15.9789 18.0047 15.5103 17.9516 15.3445C17.8985 15.1787 17.9169 14.9602 17.9627 15.036C17.9627 15.036 18.1495 15.3753 18.1923 15.6795C18.2352 15.9836 18.1696 16.5135 18.1259 16.7376C18.0822 16.9616 17.8565 17.5228 17.7481 17.6547C17.6393 17.7867 17.3514 18.0741 17.255 18.1324C17.1586 18.1906 17.0451 18.1748 17.2448 18.0064C17.4444 17.8381 17.7382 17.3116 17.8166 17.1132L17.8162 17.1137ZM19.4196 18.4207C19.0795 19.0157 17.8895 20.2301 17.1612 20.6551C16.4326 21.08 14.842 21.8207 14.3806 21.9059C13.9193 21.9912 13.9921 21.7847 14.417 21.663C14.842 21.5418 16.1657 20.9468 16.8699 20.5947C17.5742 20.2425 18.1572 19.6231 18.7398 18.9917C19.3228 18.3602 19.6385 17.1946 19.8082 16.3443C19.9778 15.494 19.3952 14.1587 19.2012 13.7458C19.0067 13.3328 17.9991 12.3981 17.9139 12.3128C17.8286 12.2276 18.0231 12.24 18.0231 12.24C18.4845 12.5193 18.7274 12.7986 19.1283 13.272C19.5289 13.7458 19.9907 14.9598 20.0875 15.8097C20.1847 16.6596 19.7598 17.8256 19.4196 18.4202V18.4207ZM18.3997 11.9483C18.5697 12.0939 19.1283 12.6161 19.2496 12.8346C19.3708 13.0531 19.6261 13.3568 19.3224 13.2112C19.3224 13.2112 18.9947 12.7742 18.7154 12.5069C18.4361 12.2396 18.266 12.0091 18.0355 11.8511C17.8046 11.693 18.23 11.8027 18.3997 11.9483ZM20.5732 15.5304C20.5248 15.8945 20.4276 15.8705 20.4276 15.8705C20.4276 15.8705 20.452 15.5548 20.3064 14.887C20.1607 14.2191 19.9662 13.7089 19.6994 13.1139C19.432 12.5189 18.6794 11.8875 18.5213 11.7538C18.3632 11.6202 18.5697 11.6566 18.5697 11.6566C19.5413 12.1059 19.881 13.0651 20.1727 13.5629C20.464 14.0606 20.6221 15.1658 20.5732 15.53V15.5304ZM20.7797 16.9633C20.6341 17.4003 20.5613 17.2062 20.5977 17.0241C20.6341 16.8421 20.7313 16.1742 20.8041 15.6885C20.877 15.2027 20.5857 13.9642 20.4764 13.5513C20.3672 13.1383 19.432 11.9847 19.432 11.9847C19.6021 11.8146 20.1303 12.3595 20.452 12.8954C20.8525 13.5633 20.8406 14.0007 20.9986 14.6561C21.1567 15.3119 20.9258 16.5259 20.7802 16.9633H20.7797ZM21.7389 14.7289C21.654 14.7169 21.496 13.9762 21.2287 13.2351C20.9614 12.4945 20.2451 11.7538 19.6745 11.3164C19.1039 10.8795 17.9503 10.7942 17.1852 10.685C16.4201 10.5758 16.056 10.2601 16.056 10.2601C16.2017 10.0536 16.9423 10.1264 17.8291 10.1144C18.7154 10.1024 18.9343 10.2845 20.1239 10.8671C21.3135 11.4497 21.654 12.8222 21.7509 13.3684C21.8481 13.915 21.8237 14.7405 21.7389 14.7285V14.7289ZM21.8588 11.7787C21.8588 11.9701 21.7397 11.8515 21.72 11.5341C21.7003 11.2166 21.6408 10.3513 21.3499 9.74987C21.059 9.14842 20.3321 8.24969 20.2001 8.14388C20.0678 8.03807 19.5327 7.51588 19.0504 7.29783C18.568 7.07979 17.8475 6.7825 17.3848 6.73623C16.9222 6.68997 16.5388 6.70325 16.4797 6.71653C16.4201 6.72981 16.3542 6.80263 16.6844 6.8489C17.0147 6.89516 17.8209 7.06694 18.3298 7.2717C18.8387 7.47647 19.6582 7.96567 20.0879 8.4416C20.5176 8.91753 21.0063 9.63763 21.1584 10.054C21.3105 10.4704 21.403 10.7613 21.4227 10.9725C21.4424 11.1841 21.218 10.6752 21.0856 10.3907C20.9532 10.1063 20.4447 9.15485 19.8566 8.59325C19.2684 8.03164 18.5415 7.50945 17.9006 7.39036C17.2597 7.27128 16.6977 7.17875 16.1297 7.22501C15.5617 7.27128 14.4976 7.5223 13.9424 7.74035C13.3872 7.95839 12.7065 8.26897 12.4028 8.34822C12.0987 8.42747 11.6493 8.74489 11.5769 8.75132C11.5769 8.75132 11.3259 8.79758 11.319 8.71148C11.3126 8.62538 11.3589 8.24241 11.9337 7.92498C12.5086 7.60755 12.9713 7.42292 13.4271 7.23101C13.8828 7.03952 14.8741 6.64285 15.5351 6.55674C16.1961 6.47064 16.8237 6.42437 17.3261 6.48392C17.8286 6.54346 18.8529 6.89345 19.5798 7.34967C20.3068 7.80589 21.1593 8.86312 21.4103 9.44443C21.6613 10.0262 21.7868 10.416 21.8267 10.7596C21.8665 11.1031 21.8597 11.5855 21.8597 11.7774L21.8588 11.7787ZM22.1882 9.75886C22.1437 9.75886 22.1437 9.52411 22.0207 9.15571C21.8978 8.78687 21.7581 8.42404 21.7247 8.39619C21.6913 8.36835 21.6635 8.4129 21.7024 8.53028C21.7414 8.64765 21.8254 9.01606 21.8644 9.16128C21.9034 9.3065 21.6746 9.02719 21.6018 8.87084C21.529 8.71448 21.0265 7.90999 20.775 7.67566C20.5236 7.44091 19.9315 6.84333 19.3952 6.59744C18.8589 6.35155 18.0548 5.98315 17.0323 5.9493C16.0102 5.91589 14.8373 6.12794 14.5019 6.26759C14.1669 6.40724 13.245 6.80392 13.0441 6.91572C13.0441 6.91572 12.6196 7.02753 12.6251 6.938C12.6307 6.84847 12.8093 6.42951 13.2172 6.22304C13.625 6.01656 14.4697 5.53164 15.4404 5.34058C16.4904 5.1341 17.7361 5.27375 18.6241 5.56419C19.5122 5.85463 20.2438 6.27915 20.8864 6.88231C21.529 7.48546 21.8361 8.19486 21.9646 8.46859C22.0931 8.74232 22.1488 9.12786 22.2105 9.35105C22.2722 9.57423 22.2328 9.75886 22.1882 9.75886Z" fill="#FCFCFC"/>
</g>
<path d="M41.3503 12.2291C41.2622 13.0217 40.99 13.7182 40.5336 14.3187C40.0773 14.9112 39.4768 15.3715 38.7322 15.6998C37.9957 16.028 37.147 16.1921 36.1863 16.1921C35.1374 16.1921 34.2207 15.996 33.4361 15.6037C32.6515 15.2114 32.039 14.663 31.5987 13.9584C31.1664 13.2539 30.9502 12.4332 30.9502 11.4965C30.9502 10.5598 31.1664 9.73915 31.5987 9.03461C32.039 8.33006 32.6515 7.78164 33.4361 7.38933C34.2207 6.99703 35.1374 6.80088 36.1863 6.80088C37.147 6.80088 37.9957 6.965 38.7322 7.29326C39.4768 7.62151 40.0773 8.08587 40.5336 8.68634C40.99 9.27879 41.2622 9.97133 41.3503 10.7639H38.8523C38.7723 10.3796 38.6161 10.0554 38.384 9.79119C38.1518 9.51898 37.8475 9.31082 37.4713 9.16671C37.103 9.0226 36.6746 8.95054 36.1863 8.95054C35.6258 8.95054 35.1414 9.05462 34.7331 9.26278C34.3248 9.46294 34.0126 9.75516 33.7964 10.1395C33.5802 10.5158 33.4722 10.9681 33.4722 11.4965C33.4722 12.0249 33.5802 12.4813 33.7964 12.8656C34.0126 13.2419 34.3248 13.5341 34.7331 13.7423C35.1414 13.9424 35.6258 14.0425 36.1863 14.0425C36.6746 14.0425 37.103 13.9744 37.4713 13.8383C37.8475 13.7022 38.1518 13.4981 38.384 13.2259C38.6161 12.9536 38.7723 12.6214 38.8523 12.2291H41.3503ZM42.019 9.14269H44.517L44.9253 11.5926V16H42.4754V11.4485L42.019 9.14269ZM48.1438 9.03461V11.1242C47.9036 11.0762 47.6754 11.0442 47.4592 11.0281C47.2511 11.0041 47.0589 10.9921 46.8828 10.9921C46.5305 10.9921 46.2063 11.0642 45.91 11.2083C45.6138 11.3444 45.3736 11.5726 45.1895 11.8928C45.0133 12.2131 44.9253 12.6414 44.9253 13.1778L44.4569 12.6014C44.521 12.105 44.617 11.6406 44.7451 11.2083C44.8732 10.7679 45.0454 10.3796 45.2615 10.0434C45.4857 9.69912 45.7619 9.43091 46.0902 9.23876C46.4184 9.03861 46.8187 8.93853 47.2911 8.93853C47.4272 8.93853 47.5673 8.94654 47.7114 8.96255C47.8555 8.97856 47.9997 9.00258 48.1438 9.03461ZM55.0138 16L54.7016 13.5261L55.0258 12.5773L54.7016 11.6286L55.0138 9.14269H57.5598L57.1275 12.5653L57.5598 16H55.0138ZM55.5903 12.5773C55.4782 13.2979 55.254 13.9304 54.9178 14.4748C54.5895 15.0192 54.1692 15.4436 53.6568 15.7478C53.1524 16.044 52.576 16.1921 51.9274 16.1921C51.2549 16.1921 50.6625 16.044 50.1501 15.7478C49.6457 15.4436 49.2494 15.0192 48.9612 14.4748C48.6729 13.9224 48.5288 13.2899 48.5288 12.5773C48.5288 11.8488 48.6729 11.2123 48.9612 10.6679C49.2494 10.1234 49.6457 9.69912 50.1501 9.39488C50.6625 9.09065 51.2549 8.93853 51.9274 8.93853C52.576 8.93853 53.1524 9.09065 53.6568 9.39488C54.1692 9.69111 54.5935 10.1114 54.9298 10.6559C55.266 11.1923 55.4862 11.8328 55.5903 12.5773ZM51.0147 12.5773C51.0147 12.9136 51.0828 13.2138 51.2189 13.478C51.363 13.7423 51.5592 13.9504 51.8074 14.1025C52.0555 14.2466 52.3398 14.3187 52.66 14.3187C52.9963 14.3187 53.3125 14.2466 53.6088 14.1025C53.905 13.9504 54.1652 13.7423 54.3894 13.478C54.6135 13.2138 54.7817 12.9136 54.8937 12.5773C54.7817 12.2331 54.6135 11.9288 54.3894 11.6646C54.1652 11.4004 53.905 11.1923 53.6088 11.0402C53.3125 10.888 52.9963 10.812 52.66 10.812C52.3398 10.812 52.0555 10.888 51.8074 11.0402C51.5592 11.1923 51.363 11.4004 51.2189 11.6646C51.0828 11.9288 51.0147 12.2331 51.0147 12.5773ZM63.5911 8.3861C63.0547 8.3861 62.6784 8.48218 62.4622 8.67433C62.2541 8.85847 62.15 9.1587 62.15 9.57502V16H59.7001V9.69512C59.7001 9.0306 59.8362 8.46617 60.1084 8.00181C60.3806 7.52944 60.7809 7.17316 61.3093 6.93298C61.8458 6.68479 62.5063 6.56069 63.2909 6.56069C63.6431 6.56069 63.9554 6.58471 64.2276 6.63275C64.5078 6.68078 64.804 6.74884 65.1163 6.8369V8.6383C64.8761 8.55023 64.6279 8.48618 64.3717 8.44615C64.1235 8.40612 63.8633 8.3861 63.5911 8.3861ZM58.307 11.5205V9.70713H64.9482V11.5205H58.307ZM65.2337 10.9561V9.88727L66.6267 9.32283L67.6836 7.29326H69.0766V9.14269H71.9589V10.9561H69.0766V12.9737C69.0766 13.47 69.1767 13.8183 69.3769 14.0185C69.577 14.2186 69.9413 14.3187 70.4697 14.3187C70.806 14.3187 71.1022 14.2907 71.3584 14.2346C71.6226 14.1706 71.8628 14.0905 72.079 13.9944V15.8439C71.8388 15.9319 71.5225 16.012 71.1302 16.0841C70.7379 16.1561 70.3336 16.1921 69.9173 16.1921C69.1567 16.1921 68.5322 16.0761 68.0438 15.8439C67.5635 15.6117 67.2072 15.2794 66.975 14.8471C66.7428 14.4068 66.6267 13.8944 66.6267 13.3099V10.9561H65.2337ZM75.7243 6.99302V14.8951L74.6074 13.7903H81.3446V16H73.2383V6.99302H75.7243ZM88.2622 16L87.95 13.5261L88.2743 12.5773L87.95 11.6286L88.2622 9.14269H90.8082L90.3759 12.5653L90.8082 16H88.2622ZM88.8387 12.5773C88.7266 13.2979 88.5024 13.9304 88.1662 14.4748C87.8379 15.0192 87.4176 15.4436 86.9052 15.7478C86.4008 16.044 85.8244 16.1921 85.1759 16.1921C84.5033 16.1921 83.9109 16.044 83.3985 15.7478C82.8941 15.4436 82.4978 15.0192 82.2096 14.4748C81.9213 13.9224 81.7772 13.2899 81.7772 12.5773C81.7772 11.8488 81.9213 11.2123 82.2096 10.6679C82.4978 10.1234 82.8941 9.69912 83.3985 9.39488C83.9109 9.09065 84.5033 8.93853 85.1759 8.93853C85.8244 8.93853 86.4008 9.09065 86.9052 9.39488C87.4176 9.69111 87.8419 10.1114 88.1782 10.6559C88.5144 11.1923 88.7346 11.8328 88.8387 12.5773ZM84.2631 12.5773C84.2631 12.9136 84.3312 13.2138 84.4673 13.478C84.6114 13.7423 84.8076 13.9504 85.0558 14.1025C85.304 14.2466 85.5882 14.3187 85.9084 14.3187C86.2447 14.3187 86.5609 14.2466 86.8572 14.1025C87.1534 13.9504 87.4136 13.7423 87.6378 13.478C87.8619 13.2138 88.0301 12.9136 88.1421 12.5773C88.0301 12.2331 87.8619 11.9288 87.6378 11.6646C87.4136 11.4004 87.1534 11.1923 86.8572 11.0402C86.5609 10.888 86.2447 10.812 85.9084 10.812C85.5882 10.812 85.304 10.888 85.0558 11.0402C84.8076 11.1923 84.6114 11.4004 84.4673 11.6646C84.3312 11.9288 84.2631 12.2331 84.2631 12.5773ZM91.6629 9.14269H94.1248L94.5692 11.8808V16H92.1193V11.5085L91.6629 9.14269ZM97.0911 8.93853C97.7477 8.93853 98.3081 9.07063 98.7724 9.33484C99.2368 9.59904 99.5891 9.97133 99.8293 10.4517C100.077 10.9321 100.202 11.5005 100.202 12.157V16H97.7517V12.5173C97.7517 12.0049 97.6196 11.6126 97.3553 11.3404C97.0992 11.0682 96.7269 10.9321 96.2385 10.9321C95.9022 10.9321 95.606 11.0041 95.3498 11.1482C95.1016 11.2924 94.9095 11.4965 94.7733 11.7607C94.6372 12.0249 94.5692 12.3372 94.5692 12.6974L93.8126 12.3011C93.9087 11.5726 94.1128 10.9601 94.4251 10.4637C94.7373 9.95932 95.1216 9.57903 95.578 9.32283C96.0343 9.06663 96.5387 8.93853 97.0911 8.93853ZM107.708 16L107.384 13.43L107.804 12.5894L107.396 11.5325L107.972 6.75284H110.518L109.81 12.3852L110.242 16H107.708ZM108.237 12.5773C108.124 13.2979 107.9 13.9304 107.564 14.4748C107.236 15.0192 106.815 15.4436 106.303 15.7478C105.799 16.044 105.222 16.1921 104.574 16.1921C103.901 16.1921 103.309 16.044 102.796 15.7478C102.292 15.4436 101.896 15.0192 101.607 14.4748C101.319 13.9224 101.175 13.2899 101.175 12.5773C101.175 11.8488 101.319 11.2123 101.607 10.6679C101.896 10.1234 102.292 9.69912 102.796 9.39488C103.309 9.09065 103.901 8.93853 104.574 8.93853C105.222 8.93853 105.799 9.09065 106.303 9.39488C106.815 9.69111 107.24 10.1114 107.576 10.6559C107.912 11.1923 108.132 11.8328 108.237 12.5773ZM103.661 12.5773C103.661 12.9136 103.729 13.2138 103.865 13.478C104.009 13.7423 104.205 13.9504 104.454 14.1025C104.702 14.2466 104.986 14.3187 105.306 14.3187C105.643 14.3187 105.959 14.2466 106.255 14.1025C106.551 13.9504 106.811 13.7423 107.036 13.478C107.26 13.2138 107.428 12.9136 107.54 12.5773C107.428 12.2331 107.26 11.9288 107.036 11.6646C106.811 11.4004 106.551 11.1923 106.255 11.0402C105.959 10.888 105.643 10.812 105.306 10.812C104.986 10.812 104.702 10.888 104.454 11.0402C104.205 11.1923 104.009 11.4004 103.865 11.6646C103.729 11.9288 103.661 12.2331 103.661 12.5773Z" fill="#FCFCFC"/>
<defs>
<clipPath id="clip0_182_1182">
<rect width="23" height="23" fill="white"/>
</clipPath>
</defs>
</svg>
