<svg width="14" height="14" viewBox="0 0 14 14" fill="none" xmlns="http://www.w3.org/2000/svg">
<path d="M6.5457 0.988282C6.72416 0.600063 7.27584 0.600061 7.4543 0.988281L9.13514 4.64478C9.20796 4.80319 9.35805 4.91224 9.53121 4.93254L13.5282 5.4012C13.9525 5.45095 14.123 5.97563 13.8089 6.26532L10.8508 8.99382C10.7226 9.11203 10.6653 9.28846 10.6995 9.45943L11.4889 13.4056C11.5727 13.8245 11.1264 14.1488 10.7538 13.9396L7.24479 11.9694C7.09276 11.8841 6.90724 11.8841 6.75521 11.9694L3.24615 13.9396C2.87359 14.1488 2.42727 13.8245 2.51108 13.4056L3.30048 9.45943C3.33468 9.28846 3.27736 9.11203 3.1492 8.99382L0.191074 6.26533C-0.122998 5.97563 0.0474793 5.45095 0.471845 5.4012L4.46879 4.93254C4.64195 4.91224 4.79204 4.80319 4.86486 4.64478L6.5457 0.988282Z" fill="#364058"/>
</svg>
