<svg width="24" height="24" viewBox="0 0 24 24" fill="none" xmlns="http://www.w3.org/2000/svg">
<path d="M19 10.3636C19 16.0909 11.5 21 11.5 21C11.5 21 4 16.0909 4 10.3636C4 8.41068 4.79018 6.53771 6.1967 5.15676C7.60322 3.77581 9.51088 3 11.5 3C13.4891 3 15.3968 3.77581 16.8033 5.15676C18.2098 6.53771 19 8.41068 19 10.3636Z" stroke="#1B4744" stroke-width="1.66667" stroke-linecap="round" stroke-linejoin="round"/>
<path d="M11.5 13C12.8807 13 14 11.8807 14 10.5C14 9.11929 12.8807 8 11.5 8C10.1193 8 9 9.11929 9 10.5C9 11.8807 10.1193 13 11.5 13Z" stroke="#1B4744" stroke-width="1.66667" stroke-linecap="round" stroke-linejoin="round"/>
</svg>
