<svg width="21" height="21" viewBox="0 0 21 21" fill="none" xmlns="http://www.w3.org/2000/svg">
<path d="M17.7008 4.28848C17.3099 3.8961 16.8457 3.58483 16.3348 3.37246C15.8239 3.16009 15.2763 3.05078 14.7233 3.05078C14.1703 3.05078 13.6227 3.16009 13.1118 3.37246C12.6009 3.58483 12.1367 3.8961 11.7457 4.28848L10.9344 5.10244L10.123 4.28848C9.33331 3.49626 8.26225 3.05119 7.14546 3.05119C6.02866 3.05119 4.9576 3.49626 4.16791 4.28848C3.37822 5.08071 2.93457 6.15519 2.93457 7.27557C2.93457 8.39594 3.37822 9.47043 4.16791 10.2627L4.97927 11.0766L10.9344 17.0508L16.8895 11.0766L17.7008 10.2627C18.092 9.87045 18.4022 9.40478 18.6139 8.89224C18.8256 8.37971 18.9346 7.83036 18.9346 7.27557C18.9346 6.72078 18.8256 6.17142 18.6139 5.65889C18.4022 5.14636 18.092 4.68069 17.7008 4.28848Z" stroke="#364058" stroke-width="1.5" stroke-linecap="round" stroke-linejoin="round"/>
</svg>
