<svg width="61" height="20" viewBox="0 0 61 20" fill="none" xmlns="http://www.w3.org/2000/svg">
<path d="M44.1786 8.14016C42.9003 7.71092 42.5014 7.45687 42.5014 6.99259C42.5014 6.47574 42.9456 6.16914 43.7344 6.16914C44.3781 6.16914 45.0218 6.34434 45.5023 6.5283L45.7108 4.28571C45.1215 4.12803 44.4053 4.00539 43.6256 4.00539C41.0417 4.00539 39.3826 5.42453 39.3826 7.29919C39.3645 8.49057 40.1895 9.62062 42.3472 10.3302C43.5621 10.7244 43.8794 10.9697 43.8794 11.4778C43.8794 11.9946 43.4714 12.3187 42.4923 12.3187C41.5403 12.3187 40.3073 11.907 39.6999 11.5566L39.1287 13.7992C39.9175 14.2109 41.1233 14.5 42.5014 14.5C45.4932 14.5 47.0163 13.1247 47.0163 11.2412C46.9982 9.76078 46.1732 8.79717 44.1786 8.14016ZM52.0209 11.9508C51.0417 11.9508 50.7425 11.3989 50.7425 10.1813V1.5L47.5694 2.20081V4.22439H46.3636L46.146 6.5283H47.5784V10.6368C47.5784 12.0559 47.8776 13.0195 48.476 13.624C48.9837 14.1408 49.854 14.4912 50.8966 14.4912C51.8123 14.4912 52.5739 14.3861 53 14.2197L52.9819 11.8544C52.7461 11.8982 52.4288 11.942 52.0209 11.9508ZM50.9964 6.53706H52.9819V4.22439H50.9964V6.53706ZM15.0127 9.43666C14.9492 7.89488 14.8948 6.02898 14.8948 4.16307H14.8314C14.4053 5.80121 13.825 7.63208 13.2901 9.13005L11.6038 14.1408H9.165L7.68722 9.16509C7.23391 7.65836 6.76247 5.82749 6.43608 4.15431H6.39982C6.31822 5.88005 6.25476 7.8686 6.15503 9.4717L5.91024 14.3423H3L3.87942 1.50876H8.04986L9.40073 5.79245C9.82684 7.27291 10.262 8.88477 10.5703 10.3827H10.6337C11.0236 8.90229 11.495 7.19407 11.9483 5.77493L13.4261 1.50876H17.515L18.2765 14.3423H15.2121L15.0127 9.43666ZM32.175 10.2601C32.2838 11.5566 33.5984 12.1698 35.1215 12.1698C36.2276 12.1698 37.116 12.0296 38.0045 11.7581L38.4306 13.878C37.3699 14.2898 36.0734 14.4912 34.6591 14.4912C31.1233 14.4912 29.1015 12.5202 29.1015 9.36658C29.1015 6.81739 30.7425 3.99663 34.3599 3.99663C37.7325 3.99663 39.0018 6.51954 39.0018 9.01617C39.0018 9.55054 38.9384 10.0236 38.893 10.2513L32.175 10.2601ZM35.9918 8.11388C35.9918 7.35175 35.6473 6.08154 34.1605 6.08154C32.8005 6.08154 32.2475 7.27291 32.1659 8.11388H35.9918Z" fill="#627C7A"/>
<path d="M55.7902 1.50671L58 5.4551L55.7902 9.4214H53.553L55.7628 5.4551L53.5439 1.50671H55.7902C55.7902 1.49776 55.7902 1.49776 55.7902 1.50671ZM28.4418 18.5H19.4566V16.3154H28.4418V18.5ZM22.0955 10.4331C22.2051 11.7582 23.5292 12.3849 25.0632 12.3849C26.1772 12.3849 27.0721 12.2417 27.967 11.9641L28.3962 14.1308C27.3278 14.5516 26.022 14.7575 24.5975 14.7575C21.0363 14.7575 19 12.7431 19 9.51988C19 6.91448 20.6528 4.03153 24.2962 4.03153C27.693 4.03153 28.9714 6.61007 28.9714 9.16175C28.9714 9.7079 28.9075 10.1914 28.8619 10.4242H22.0955V10.4331ZM25.9398 8.23957C25.9398 7.46063 25.5928 6.16241 24.0953 6.16241C22.7256 6.16241 22.1686 7.38005 22.0773 8.23957H25.9398Z" fill="#95B1AE"/>
</svg>
