<svg width="24" height="24" viewBox="0 0 24 24" fill="none" xmlns="http://www.w3.org/2000/svg">
<path d="M13.7586 18.2335V14.0731H10.2324V18.2335H7.53345L10.8064 21.5081C11.4645 22.164 12.5287 22.164 13.1868 21.5081L16.461 18.2335H13.7586ZM5.76452 16.4689V7.53077L2.4927 10.8042C1.83577 11.4613 1.83577 12.5279 2.4927 13.185L5.76452 16.4689ZM10.2289 5.76041V9.91965H13.7586V5.76041H16.461L13.1821 2.49277C12.5252 1.83574 11.4587 1.83574 10.8018 2.49277L7.53229 5.76041H10.2289ZM21.4959 10.7996L18.2252 7.53194V16.4608L21.4994 13.1861C22.1598 12.5349 22.168 11.4729 21.5169 10.8124C21.5157 10.8112 21.5145 10.8101 21.5134 10.8089C21.5134 10.8089 21.5134 10.8089 21.4994 10.8089L21.4959 10.7996Z" fill="#627C7A"/>
</svg>
