<svg width="16" height="16" viewBox="0 0 16 16" fill="none" xmlns="http://www.w3.org/2000/svg">
<path d="M7.5457 0.988282C7.72416 0.600063 8.27584 0.600061 8.4543 0.988281L10.1351 4.64478C10.208 4.80319 10.358 4.91224 10.5312 4.93254L14.5282 5.4012C14.9525 5.45095 15.123 5.97563 14.8089 6.26532L11.8508 8.99382C11.7226 9.11203 11.6653 9.28846 11.6995 9.45943L12.4889 13.4056C12.5727 13.8245 12.1264 14.1488 11.7538 13.9396L8.24479 11.9694C8.09276 11.8841 7.90724 11.8841 7.75521 11.9694L4.24615 13.9396C3.87359 14.1488 3.42727 13.8245 3.51108 13.4056L4.30048 9.45943C4.33468 9.28846 4.27736 9.11203 4.1492 8.99382L1.19107 6.26533C0.877002 5.97563 1.04748 5.45095 1.47185 5.4012L5.46879 4.93254C5.64195 4.91224 5.79204 4.80319 5.86486 4.64478L7.5457 0.988282Z" fill="#95B1AE"/>
</svg>
