<svg width="18" height="24" viewBox="0 0 18 24" fill="none" xmlns="http://www.w3.org/2000/svg">
<g clip-path="url(#clip0_802_1519)">
<path d="M15.3036 13.7038C15.303 13.7036 7.5926 11.9804 7.5926 11.9804C5.2944 11.4668 3.85272 9.21045 4.37265 6.94065C4.89289 4.67085 7.17764 3.24738 9.47584 3.76085C11.7742 4.27451 13.2157 6.53085 12.6957 8.8005C12.4352 9.93687 11.7323 10.8603 10.8069 11.4356C10.8067 11.4356 10.8045 11.4374 10.8036 11.4379C10.7764 11.4572 10.7588 11.4886 10.7588 11.5239C10.7588 11.5734 10.7934 11.615 10.8402 11.6261C10.8403 11.6263 14.2702 12.3923 14.2708 12.3923C14.3525 12.4105 14.4372 12.3794 14.4873 12.314C14.4876 12.3134 14.4875 12.3139 14.4875 12.3139C15.4324 11.079 16 9.53829 16 7.87181C16 3.94722 12.8953 0.739946 8.97912 0.512148C8.94421 0.510242 8.73199 0.502054 8.66028 0.501045C6.92639 0.474163 5.16837 0.965164 3.63961 2.0225C-0.221084 4.69216 -1.15909 9.94693 1.54386 13.7595L8.40384 23.435C8.43314 23.4744 8.48031 23.5 8.53324 23.5C8.58661 23.5 8.63394 23.474 8.66309 23.4343C8.66309 23.4343 15.3994 13.9469 15.4 13.946C15.4172 13.9209 15.4274 13.8904 15.4274 13.8577C15.4274 13.7826 15.3746 13.7198 15.3036 13.7038Z" fill="#627C7A"/>
</g>
<defs>
<clipPath id="clip0_802_1519">
<rect width="18" height="23" fill="white" transform="translate(0 0.5)"/>
</clipPath>
</defs>
</svg>
