<svg width="24" height="24" viewBox="0 0 24 24" fill="none" xmlns="http://www.w3.org/2000/svg">
<path d="M19.2696 11.9999C19.0793 11.9999 18.8969 11.9355 18.7624 11.8208C18.6279 11.7061 18.5523 11.5506 18.5523 11.3884V9.62716C18.5792 9.28061 18.445 8.93897 18.1786 8.67618C17.9123 8.41339 17.5353 8.25061 17.1292 8.22307H4.71729C4.52705 8.22307 4.34461 8.15864 4.21009 8.04396C4.07557 7.92927 4 7.77373 4 7.61154C4 7.44935 4.07557 7.2938 4.21009 7.17911C4.34461 7.06443 4.52705 7 4.71729 7H17.1292C17.9172 7.02423 18.6617 7.3139 19.1996 7.80547C19.7374 8.29704 20.0247 8.9504 19.9983 9.62227V11.3835C19.9991 11.465 19.9808 11.5459 19.9443 11.6213C19.9079 11.6967 19.8542 11.7652 19.7863 11.8226C19.7184 11.88 19.6377 11.9253 19.5489 11.9558C19.4602 11.9862 19.3652 12.0012 19.2696 11.9999Z" fill="#1B4744"/>
<path d="M17.163 21H4.84833C4.06652 20.9745 3.3278 20.6701 2.79416 20.1534C2.26052 19.6367 1.97552 18.9499 2.00165 18.2437V6.64278C2.00165 6.47231 2.07663 6.30881 2.21009 6.18827C2.34356 6.06772 2.52457 6 2.71332 6C2.90207 6 3.08308 6.06772 3.21655 6.18827C3.35001 6.30881 3.42499 6.47231 3.42499 6.64278V18.2437C3.39832 18.6075 3.53168 18.966 3.79607 19.2414C4.06047 19.5168 4.43453 19.6868 4.83694 19.7144H17.163C17.5655 19.6868 17.9395 19.5168 18.2039 19.2414C18.4683 18.966 18.6017 18.6075 18.575 18.2437V16.9376C18.575 16.7671 18.65 16.6036 18.7834 16.4831C18.9169 16.3625 19.0979 16.2948 19.2867 16.2948C19.4754 16.2948 19.6564 16.3625 19.7899 16.4831C19.9234 16.6036 19.9983 16.7671 19.9983 16.9376V18.2437C20.0245 18.9482 19.7411 19.6335 19.2099 20.1499C18.6787 20.6663 17.9428 20.9719 17.163 21Z" fill="#1B4744"/>
<path d="M17.1129 8.39427C16.9229 8.39429 16.7406 8.32902 16.6052 8.21253C16.4697 8.09605 16.3921 7.9377 16.3891 7.77165V6.36951C16.3755 6.06918 16.2267 5.78572 15.9751 5.58091C15.7234 5.3761 15.3894 5.26655 15.0457 5.27614H4.62304C4.32757 5.26655 4.03978 5.35971 3.82272 5.53523C3.60566 5.71075 3.47702 5.95432 3.46497 6.21259C3.47702 6.47085 3.60566 6.71442 3.82272 6.88994C4.03978 7.06546 4.32757 7.15863 4.62304 7.14904H10.9925C11.1844 7.14904 11.3685 7.2157 11.5043 7.33436C11.64 7.45302 11.7163 7.61396 11.7163 7.78178C11.7163 7.94959 11.64 8.11053 11.5043 8.22919C11.3685 8.34785 11.1844 8.41451 10.9925 8.41451H4.60567C4.26832 8.4192 3.93323 8.36566 3.61958 8.25697C3.30594 8.14827 3.0199 7.98655 2.77786 7.78107C2.53581 7.57559 2.34252 7.33039 2.20904 7.05951C2.07556 6.78862 2.00453 6.49738 2 6.20246C2.01218 5.6086 2.29339 5.04322 2.7819 4.6304C3.27041 4.21758 3.92632 3.99106 4.60567 4.00054H15.0284C15.391 3.99383 15.7516 4.04989 16.0894 4.16551C16.4271 4.28112 16.7354 4.45399 16.9964 4.67418C17.2574 4.89437 17.4661 5.15751 17.6103 5.44847C17.7545 5.73942 17.8314 6.05244 17.8367 6.36951V7.77165C17.8337 7.9377 17.7561 8.09605 17.6207 8.21253C17.4852 8.32902 17.3029 8.39429 17.1129 8.39427ZM20.037 16.9995H16.0243C15.2405 17.0131 14.4826 16.7542 13.917 16.2796C13.3513 15.8051 13.0242 15.1537 13.0075 14.4685V13.5523C13.0242 12.8672 13.3513 12.2158 13.917 11.7413C14.4826 11.2667 15.2405 11.0078 16.0243 11.0214H20.0776C20.3308 11.0221 20.5814 11.0663 20.815 11.1516C21.0487 11.237 21.2608 11.3617 21.4393 11.5187C21.6178 11.6757 21.7592 11.8619 21.8554 12.0666C21.9516 12.2714 22.0008 12.4907 22 12.7121V15.3392C21.9909 15.7867 21.7791 16.2128 21.4111 16.524C21.0431 16.8353 20.549 17.0063 20.037 16.9995ZM16.0243 12.2919C15.6253 12.2782 15.2364 12.403 14.9423 12.6392C14.6483 12.8754 14.4732 13.2036 14.4551 13.5523V14.4939C14.4732 14.8425 14.6483 15.1708 14.9423 15.407C15.2364 15.6431 15.6253 15.768 16.0243 15.7543H20.037C20.1635 15.7543 20.2849 15.7107 20.3749 15.633C20.4648 15.5553 20.5161 15.4497 20.5177 15.3392V12.7121C20.5142 12.611 20.4665 12.515 20.3845 12.4438C20.341 12.4041 20.2889 12.3725 20.2312 12.3507C20.1735 12.329 20.1115 12.3176 20.0486 12.3172L16.0243 12.2919Z" fill="#1B4744"/>
<path d="M16.5 15C16.7761 15 17 14.7761 17 14.5C17 14.2239 16.7761 14 16.5 14C16.2239 14 16 14.2239 16 14.5C16 14.7761 16.2239 15 16.5 15Z" fill="#1B4744"/>
</svg>
