<svg width="19" height="22" viewBox="0 0 19 22" fill="none" xmlns="http://www.w3.org/2000/svg">
<path d="M9.84107 21.972C16.1196 19.4763 18.8099 14.1846 18.9092 13.9603C18.9713 13.8447 19.0024 13.7169 18.9999 13.5878V5.40386C19.0008 5.0579 18.8829 4.72065 18.6631 4.44114C18.4434 4.16163 18.1332 3.95441 17.7778 3.8496M9.84107 21.972V20.972H9.77629H9.71584H9.64668M9.84107 21.972L9.77629 21.809L9.71584 21.6569L9.59618 21.3559L9.58381 21.4386L9.49993 22M9.84107 21.972H9.77629H9.71584C9.64536 21.9894 9.57286 21.9988 9.49993 22M9.64668 20.972C12.5134 19.7942 14.5762 17.9986 15.9431 16.4521C16.6396 15.6641 17.1512 14.9453 17.4921 14.415C17.8159 13.9114 17.9752 13.5944 17.9931 13.5587C17.9944 13.5561 17.995 13.555 17.9948 13.5555L17.9999 13.544M9.64668 20.972H9.5939L9.57178 20.9774L9.4733 20.9359H9.34062C3.82531 18.665 1.29697 14.0981 1.00001 13.5312V5.40751C1.00114 5.29378 1.04079 5.17457 1.12656 5.06756C1.21394 4.95854 1.34649 4.86679 1.51285 4.81947L1.51286 4.81949L1.51775 4.81807C3.24478 4.31741 5.25208 3.35026 6.79874 2.53045C7.58046 2.1161 8.26041 1.73078 8.7495 1.44641C8.99424 1.30411 9.19158 1.18686 9.33037 1.10365C9.39979 1.06202 9.45446 1.02898 9.49286 1.00571C9.4962 1.00368 9.49934 1.00178 9.50228 1H9.52395C9.56208 1.02367 9.61114 1.05376 9.66985 1.08935C9.80756 1.17282 10.0039 1.28997 10.2477 1.4319C10.7351 1.71566 11.4159 2.10076 12.1998 2.51535C13.7505 3.33553 15.7667 4.30459 17.4962 4.80913M9.64668 20.972C9.63183 20.9781 9.61696 20.9841 9.60207 20.9902L17.7778 3.8496M17.9999 13.544V13.5577V13.5878V13.5978L18.0001 13.6078C17.9999 13.601 18 13.5943 18.0004 13.5878C18.001 13.5781 18.0021 13.5686 18.0037 13.5594C18.0083 13.5325 18.017 13.5079 18.0284 13.4867L18.0103 13.5204L17.9999 13.544ZM17.9999 13.544V5.40386V5.40099C18.0002 5.28686 17.9618 5.16705 17.877 5.05922C17.7914 4.95032 17.6609 4.85796 17.4962 4.80913M17.4962 4.80913C17.4968 4.80929 17.4973 4.80946 17.4979 4.80962L17.7778 3.8496M17.4962 4.80913C17.4958 4.80901 17.4954 4.80888 17.495 4.80876L17.7778 3.8496M9.49993 22L9.49047 21.4156L9.48511 21.0841L9.27107 21.6215L9.21062 21.7733L9.14584 21.9359H9.21062H9.27107C9.34394 21.9666 9.42091 21.9882 9.49993 22Z" stroke="#1B4744" stroke-width="2"/>
<path d="M12.7322 9.21182C12.6474 9.14467 12.5467 9.0914 12.4359 9.05505C12.325 9.01871 12.2062 9 12.0862 9C11.9662 9 11.8474 9.01871 11.7365 9.05505C11.6257 9.0914 11.525 9.14467 11.4402 9.21182L8.85617 11.2558L7.5596 10.2302C7.38826 10.0947 7.15589 10.0185 6.91359 10.0185C6.67129 10.0185 6.43892 10.0947 6.26758 10.2302C6.09625 10.3657 6 10.5495 6 10.7412C6 10.9328 6.09625 11.1166 6.26758 11.2522L8.20788 12.7869C8.29283 12.8545 8.39384 12.9082 8.50511 12.9447C8.61637 12.9813 8.73569 13.0001 8.85617 13C9.09795 12.9992 9.32945 12.9226 9.4999 12.7869L12.7322 10.2338C12.8171 10.1667 12.8844 10.0871 12.9304 9.99939C12.9763 9.91171 13 9.81773 13 9.72281C13 9.6279 12.9763 9.53391 12.9304 9.44624C12.8844 9.35856 12.8171 9.2789 12.7322 9.21182Z" fill="#1B4744"/>
</svg>
